<svg width="236" height="138" viewBox="0 0 236 138" fill="none" xmlns="http://www.w3.org/2000/svg">
<g clip-path="url(#clip0)">
<path d="M101.734 110.935H88.519C88.519 103.69 94.4431 97.7534 101.785 97.7534V110.935H101.734Z" fill="#711470"/>
<path d="M101.734 110.935H88.519V137.499C88.519 141.121 91.5064 144.089 95.1519 144.089C98.7975 144.089 101.785 141.121 101.785 137.499V110.935H101.734Z" fill="#F6C09C"/>
<path d="M101.785 110.935H88.519V115.664H101.785V110.935Z" fill="#EE927E"/>
<path d="M94.0886 145.146C98.3391 145.146 101.785 141.722 101.785 137.499C101.785 133.275 98.3391 129.852 94.0886 129.852C89.8381 129.852 86.3924 133.275 86.3924 137.499C86.3924 141.722 89.8381 145.146 94.0886 145.146Z" fill="#F6C09C"/>
<path d="M116.215 110.935H129.481C129.481 103.69 123.557 97.7534 116.215 97.7534V110.935Z" fill="#711470"/>
<path d="M116.215 110.935H129.481V137.499C129.481 141.121 126.494 144.089 122.848 144.089C119.203 144.089 116.215 141.121 116.215 137.499V110.935Z" fill="#F6C09C"/>
<path d="M116.155 115.655H129.421V110.926H116.155V115.655Z" fill="#EE927E"/>
<path d="M123.861 145.146C128.111 145.146 131.557 141.722 131.557 137.499C131.557 133.275 128.111 129.852 123.861 129.852C119.61 129.852 116.165 133.275 116.165 137.499C116.165 141.722 119.61 145.146 123.861 145.146Z" fill="#F6C09C"/>
<path d="M109.177 122.355H95.8608V139.662H109.177V122.355Z" fill="#00757B"/>
<path d="M109.38 124.166C117.853 124.166 124.722 117.341 124.722 108.922C124.722 100.503 117.853 93.6782 109.38 93.6782C100.907 93.6782 94.038 100.503 94.038 108.922C94.038 117.341 100.907 124.166 109.38 124.166Z" fill="#8F278E"/>
<path d="M109.38 115.664C102.392 115.664 96.4684 111.035 94.6456 104.646C94.2405 106.004 94.038 107.463 94.038 108.922C94.038 117.375 100.924 124.166 109.38 124.166C117.835 124.166 124.722 117.324 124.722 108.922C124.722 107.463 124.519 106.004 124.114 104.646C122.291 110.985 116.367 115.664 109.38 115.664Z" fill="#711470"/>
<path d="M109.38 102.784C106.241 102.784 103.658 100.219 103.658 97.0994V89.3515C103.658 86.2323 106.241 83.6664 109.38 83.6664C112.519 83.6664 115.101 86.2323 115.101 89.3515V97.0994C115.101 100.219 112.519 102.784 109.38 102.784Z" fill="#EE927E"/>
<path d="M109.38 97.7534C106.241 97.7534 103.658 95.1876 103.658 92.0683V81.6037C103.658 78.4845 106.241 75.9186 109.38 75.9186C112.519 75.9186 115.101 78.4845 115.101 81.6037V92.0683C115.101 95.1876 112.519 97.7534 109.38 97.7534Z" fill="#E9686A"/>
<path d="M87.3545 75.164C75.962 63.8441 75.962 45.3298 87.3545 34.0602L113.076 8.50248C124.468 -2.8174 143.101 -2.8174 154.443 8.50248C165.835 19.8224 165.835 38.3366 154.443 49.6062L128.722 75.164C117.38 86.4838 98.7469 86.4838 87.3545 75.164Z" fill="#DD2B26"/>
<path d="M138.038 63.1397C141.198 63.1397 143.759 60.5944 143.759 57.4546C143.759 54.3148 141.198 51.7695 138.038 51.7695C134.878 51.7695 132.316 54.3148 132.316 57.4546C132.316 60.5944 134.878 63.1397 138.038 63.1397Z" fill="#EE927E"/>
<path d="M80.7215 63.1397C83.8814 63.1397 86.443 60.5944 86.443 57.4546C86.443 54.3148 83.8814 51.7695 80.7215 51.7695C77.5616 51.7695 75 54.3148 75 57.4546C75 60.5944 77.5616 63.1397 80.7215 63.1397Z" fill="#EE927E"/>
<path d="M130.8 83.5126C142.624 71.7635 142.624 52.7145 130.8 40.9654C118.976 29.2163 99.8045 29.2163 87.9801 40.9654C76.1557 52.7145 76.1557 71.7635 87.9801 83.5126C99.8045 95.2617 118.976 95.2617 130.8 83.5126Z" fill="#F6C09C"/>
<path d="M109.481 79.9938C94.8481 79.9938 82.595 69.6298 79.8101 55.895C79.3544 57.9074 79.1519 60.0205 79.1519 62.1838C79.1519 78.7863 92.7215 92.2696 109.43 92.2696C126.139 92.2696 139.709 78.7863 139.709 62.1838C139.709 60.1211 139.506 58.1087 139.101 56.1969C136.114 69.831 124.013 79.9938 109.481 79.9938Z" fill="#F5B296"/>
<path d="M90.4937 53.1279C90.7468 63.2907 99.1013 71.441 109.43 71.441C119.76 71.441 128.063 63.2907 128.367 53.1279H90.4937Z" fill="white"/>
<path d="M96.5696 48.7509C96.5696 48.0465 97.1266 47.4931 97.8354 47.4931H100.367C101.076 47.4931 101.633 48.0465 101.633 48.7509C101.633 49.4552 101.076 50.0086 100.367 50.0086H97.8354C97.1266 50.0086 96.5696 49.4552 96.5696 48.7509Z" fill="#002334"/>
<path d="M101.329 45.1788H96.7722C95.8101 45.1788 95 44.3739 95 43.418C95 42.4621 95.8101 41.6571 96.7722 41.6571H101.329C102.291 41.6571 103.101 42.4621 103.101 43.418C103.152 44.3739 102.342 45.1788 101.329 45.1788Z" fill="#EE927E"/>
<path d="M101.329 42.5627H96.7722C95.8101 42.5627 95 41.7577 95 40.8018C95 39.8459 95.8101 39.041 96.7722 39.041H101.329C102.291 39.041 103.101 39.8459 103.101 40.8018C103.152 41.7577 102.342 42.5627 101.329 42.5627Z" fill="#002334"/>
<path d="M117.177 48.7509C117.177 48.0465 117.734 47.4931 118.443 47.4931H120.975C121.684 47.4931 122.24 48.0465 122.24 48.7509C122.24 49.4552 121.684 50.0086 120.975 50.0086H118.443C117.785 50.0086 117.177 49.4552 117.177 48.7509Z" fill="#002334"/>
<path d="M121.987 45.1788H117.43C116.468 45.1788 115.658 44.3739 115.658 43.418C115.658 42.4621 116.468 41.6571 117.43 41.6571H121.987C122.949 41.6571 123.76 42.4621 123.76 43.418C123.76 44.3739 122.949 45.1788 121.987 45.1788Z" fill="#EE927E"/>
<path d="M121.987 42.5627H117.43C116.468 42.5627 115.658 41.7577 115.658 40.8018C115.658 39.8459 116.468 39.041 117.43 39.041H121.987C122.949 39.041 123.76 39.8459 123.76 40.8018C123.76 41.7577 122.949 42.5627 121.987 42.5627Z" fill="#002334"/>
<path d="M118.844 30.1221C119.859 25.8496 117.196 21.5682 112.896 20.5593C108.596 19.5505 104.288 22.1962 103.272 26.4687C102.257 30.7412 104.92 35.0226 109.22 36.0314C113.519 37.0403 117.828 34.3946 118.844 30.1221Z" fill="#002334"/>
<path d="M125.837 33.1588C126.506 30.3465 124.753 27.5284 121.923 26.8643C119.092 26.2003 116.256 27.9417 115.588 30.754C114.92 33.5663 116.672 36.3844 119.503 37.0485C122.333 37.7125 125.169 35.971 125.837 33.1588Z" fill="#002334"/>
<path d="M103.389 35.528C105.378 34.7092 106.323 32.443 105.499 30.4663C104.675 28.4896 102.394 27.551 100.405 28.3697C98.4153 29.1885 97.4706 31.4547 98.2947 33.4314C99.1187 35.4081 101.399 36.3468 103.389 35.528Z" fill="#002334"/>
<path d="M95.8608 116.419V122.406C95.8608 129.65 101.835 135.637 109.177 135.637C116.468 135.637 122.494 129.701 122.494 122.406V116.419H95.8608Z" fill="#009E9E"/>
<path d="M122.443 116.419H95.8608V120.544H122.443V116.419Z" fill="#00757B"/>
<path d="M122.494 122.355H109.177V139.662H122.494V122.355Z" fill="#009E9E"/>
</g>
<defs>
<clipPath id="clip0">
<rect width="236" height="138" fill="white"/>
</clipPath>
</defs>
</svg>
