<svg width="236" height="136" viewBox="0 0 236 136" fill="none" xmlns="http://www.w3.org/2000/svg">
<g clip-path="url(#clip0)">
<path d="M102.274 125.813C89.3645 125.813 78.8828 136.297 78.8828 149.21V178.294H102.274V125.813Z" fill="#CC1E53"/>
<path d="M134.726 125.813C147.636 125.813 158.117 136.297 158.117 149.21V178.294H134.726V125.813Z" fill="#CC1E53"/>
<path d="M147.162 145.419C147.162 129.663 134.371 116.869 118.618 116.869C102.985 116.869 90.312 129.426 90.0751 145.005H89.8974V156.555H146.984V145.36H147.162V145.419Z" fill="#EE2761"/>
<path d="M118.559 42.4115C130.268 42.4115 139.759 32.9174 139.759 21.2057C139.759 9.49414 130.268 0 118.559 0C106.851 0 97.359 9.49414 97.359 21.2057C97.359 32.9174 106.851 42.4115 118.559 42.4115Z" fill="#002334"/>
<path d="M118.559 100.283C139.85 100.283 157.11 83.0186 157.11 61.7217C157.11 40.4249 139.85 23.1605 118.559 23.1605C97.2679 23.1605 80.0079 40.4249 80.0079 61.7217C80.0079 83.0186 97.2679 100.283 118.559 100.283Z" fill="#002334"/>
<path d="M95.1894 77.0745C97.9693 75.9227 99.2894 72.7348 98.1379 69.9542C96.9864 67.1736 93.7994 65.8531 91.0194 67.0049C88.2395 68.1567 86.9194 71.3446 88.0709 74.1253C89.2224 76.9059 92.4095 78.2263 95.1894 77.0745Z" fill="#79483E"/>
<path d="M146.236 77.0694C149.016 75.9176 150.336 72.7297 149.184 69.949C148.033 67.1684 144.846 65.8479 142.066 66.9997C139.286 68.1515 137.966 71.3394 139.117 74.1201C140.269 76.9007 143.456 78.2212 146.236 77.0694Z" fill="#79483E"/>
<path d="M118.915 129.012C113.881 129.012 109.736 124.865 109.736 119.83V101.764C109.736 96.729 113.881 92.5826 118.915 92.5826C123.948 92.5826 128.093 96.729 128.093 101.764V119.83C128.093 124.865 124.007 129.012 118.915 129.012Z" fill="#63382F"/>
<path d="M118.915 116.632C113.881 116.632 109.736 112.485 109.736 107.45V89.384C109.736 84.3491 113.881 80.2028 118.915 80.2028C123.948 80.2028 128.093 84.3491 128.093 89.384V107.45C128.093 112.544 124.007 116.632 118.915 116.632Z" fill="#532C24"/>
<path d="M118.559 107.865C104.643 107.865 93.2137 96.4328 93.2137 82.5129V67.2897C93.2137 53.3105 104.643 41.9376 118.559 41.9376C132.476 41.9376 143.905 53.3698 143.905 67.2897V82.5129C143.905 96.4328 132.476 107.865 118.559 107.865Z" fill="#A16356"/>
<path d="M118.559 98.7429C104.643 98.7429 93.2137 87.3108 93.2137 73.3908V82.5128C93.2137 96.4328 104.643 107.865 118.559 107.865C132.476 107.865 143.905 96.4328 143.905 82.5128V73.3908C143.905 87.3108 132.476 98.7429 118.559 98.7429Z" fill="#92594D"/>
<path d="M101.919 75.6417C102.156 84.6453 109.499 91.8718 118.559 91.8718C127.62 91.8718 134.963 84.6453 135.2 75.6417H101.919Z" fill="white"/>
<path d="M109.262 64.3873H101.8C100.083 64.3873 98.721 62.9656 98.721 61.3071C98.721 59.5893 100.142 58.2269 101.8 58.2269H109.262C110.979 58.2269 112.341 59.6485 112.341 61.3071C112.341 62.9656 110.979 64.3873 109.262 64.3873Z" fill="#79483E"/>
<path d="M109.262 60.004H101.8C100.083 60.004 98.721 58.5823 98.721 56.9238C98.721 55.206 100.142 53.8436 101.8 53.8436H109.262C110.979 53.8436 112.341 55.2652 112.341 56.9238C112.341 58.6416 110.979 60.004 109.262 60.004Z" fill="#002334"/>
<path d="M135.318 64.3873H127.857C126.139 64.3873 124.777 62.9656 124.777 61.3071C124.777 59.5893 126.198 58.2269 127.857 58.2269H135.318C137.035 58.2269 138.397 59.6485 138.397 61.3071C138.457 62.9656 137.035 64.3873 135.318 64.3873Z" fill="#79483E"/>
<path d="M135.318 60.004H127.857C126.139 60.004 124.777 58.5823 124.777 56.9238C124.777 55.206 126.198 53.8436 127.857 53.8436H135.318C137.035 53.8436 138.397 55.2652 138.397 56.9238C138.457 58.6416 137.035 60.004 135.318 60.004Z" fill="#002334"/>
<path d="M105.353 72.0284C104.169 72.0284 103.222 71.0807 103.222 69.896V67.7636C103.222 66.5789 104.169 65.6312 105.353 65.6312C106.538 65.6312 107.485 66.5789 107.485 67.7636V69.896C107.485 71.0807 106.538 72.0284 105.353 72.0284Z" fill="#002334"/>
<path d="M131.765 72.0284C130.581 72.0284 129.633 71.0807 129.633 69.896V67.7636C129.633 66.5789 130.581 65.6312 131.765 65.6312C132.949 65.6312 133.897 66.5789 133.897 67.7636V69.896C133.897 71.0807 132.949 72.0284 131.765 72.0284Z" fill="#002334"/>
</g>
<defs>
<clipPath id="clip0">
<rect width="236" height="136" fill="white"/>
</clipPath>
</defs>
</svg>
