<svg width="236" height="150" viewBox="0 0 236 150" fill="none" xmlns="http://www.w3.org/2000/svg">
<g clip-path="url(#clip0)">
<path d="M157.202 101.818V188.79H188.706V133.322C188.706 115.927 174.597 101.818 157.202 101.818Z" fill="#005C89"/>
<path d="M88.4857 101.818V188.79H56.9817V133.322C56.9817 115.927 71.0911 101.818 88.4857 101.818Z" fill="#005C89"/>
<path d="M152.571 173.496H94.948C75.8302 173.496 60.3206 157.986 60.3206 138.868C60.3206 119.751 75.8302 104.241 94.948 104.241H152.571C171.689 104.241 187.198 119.751 187.198 138.868C187.198 157.986 171.689 173.496 152.571 173.496Z" fill="#0980B7"/>
<path d="M152.786 150.77H95.1635C79.8692 150.77 66.9445 140.861 62.3131 127.128C61.0207 130.79 60.2667 134.722 60.2667 138.815C60.2667 157.932 75.7764 173.442 94.8942 173.442H152.517C171.635 173.442 187.144 157.932 187.144 138.815C187.144 134.991 186.498 131.275 185.367 127.829C180.574 141.184 167.811 150.77 152.786 150.77Z" fill="#0B76A9"/>
<path d="M149.232 57.8197C153.069 57.8197 156.179 54.7094 156.179 50.8726C156.179 47.0359 153.069 43.9256 149.232 43.9256C145.395 43.9256 142.285 47.0359 142.285 50.8726C142.285 54.7094 145.395 57.8197 149.232 57.8197Z" fill="#58271C"/>
<path d="M98.2869 57.8197C102.124 57.8197 105.234 54.7094 105.234 50.8726C105.234 47.0359 102.124 43.9256 98.2869 43.9256C94.4502 43.9256 91.3399 47.0359 91.3399 50.8726C91.3399 54.7094 94.4502 57.8197 98.2869 57.8197Z" fill="#58271C"/>
<path d="M103.618 50.3879C108.615 50.3879 112.666 46.3373 112.666 41.3406C112.666 36.3439 108.615 32.2933 103.618 32.2933C98.6217 32.2933 94.5711 36.3439 94.5711 41.3406C94.5711 46.3373 98.6217 50.3879 103.618 50.3879Z" fill="#ACE0F3"/>
<path d="M143.9 50.3879C148.897 50.3879 152.948 46.3373 152.948 41.3406C152.948 36.3439 148.897 32.2933 143.9 32.2933C138.904 32.2933 134.853 36.3439 134.853 41.3406C134.853 46.3373 138.904 50.3879 143.9 50.3879Z" fill="#ACE0F3"/>
<path d="M148.963 50.1187V49.1493C148.963 35.363 137.6 24 123.759 24C109.919 24 98.5562 35.363 98.5562 49.2032V50.1725C91.9861 56.6349 87.8933 65.6822 87.8933 75.645V105.049H159.679V75.645C159.625 65.6822 155.533 56.6349 148.963 50.1187Z" fill="#F6C09C"/>
<path d="M132.322 43.8718H127.744C126.344 43.8718 125.213 42.7408 125.213 41.3407C125.213 39.9405 126.344 38.8096 127.744 38.8096H132.322C133.722 38.8096 134.853 39.9405 134.853 41.3407C134.799 42.7408 133.668 43.8718 132.322 43.8718Z" fill="#58271C"/>
<path d="M130.006 51.3034C128.983 51.3034 128.175 50.4956 128.175 49.4724V46.6721C128.175 45.6489 128.983 44.8411 130.006 44.8411C131.03 44.8411 131.837 45.6489 131.837 46.6721V49.4724C131.837 50.4956 131.03 51.3034 130.006 51.3034Z" fill="#002334"/>
<path d="M132.322 40.5328H127.744C126.344 40.5328 125.213 39.4019 125.213 38.0017C125.213 36.6016 126.344 35.4706 127.744 35.4706H132.322C133.722 35.4706 134.853 36.6016 134.853 38.0017C134.799 39.4019 133.668 40.5328 132.322 40.5328Z" fill="#ACE0F3"/>
<path d="M119.828 43.8718H115.251C113.85 43.8718 112.72 42.7408 112.72 41.3407C112.72 39.9405 113.85 38.8096 115.251 38.8096H119.828C121.228 38.8096 122.359 39.9405 122.359 41.3407C122.305 42.7408 121.174 43.8718 119.828 43.8718Z" fill="#58271C"/>
<path d="M117.512 51.3034C116.489 51.3034 115.681 50.4956 115.681 49.4724V46.6721C115.681 45.6489 116.489 44.8411 117.512 44.8411C118.536 44.8411 119.343 45.6489 119.343 46.6721V49.4724C119.343 50.4956 118.536 51.3034 117.512 51.3034Z" fill="#002334"/>
<path d="M119.828 40.5328H115.251C113.85 40.5328 112.72 39.4019 112.72 38.0017C112.72 36.6016 113.85 35.4706 115.251 35.4706H119.828C121.228 35.4706 122.359 36.6016 122.359 38.0017C122.305 39.4019 121.174 40.5328 119.828 40.5328Z" fill="#ACE0F3"/>
<path d="M123.759 80.5456C132.914 80.5456 140.346 73.1139 140.346 63.9589H107.173C107.173 73.1139 114.604 80.5456 123.759 80.5456Z" fill="white"/>
<path d="M137.169 53.6191H124.298H123.221H110.35C104.48 53.6191 99.7409 58.3582 99.7409 64.2282V67.5132H118.213C120.69 67.5132 122.844 66.0053 123.813 63.9051C124.783 66.0592 126.883 67.5132 129.414 67.5132H147.886V64.2282C147.778 58.4121 143.039 53.6191 137.169 53.6191Z" fill="#ACE0F3"/>
<path d="M159.679 95.3013H87.8933V105.049H159.679V95.3013Z" fill="#00A8C7"/>
<path d="M159.679 90.2391H87.8933V95.3552H159.679V90.2391Z" fill="#58271C"/>
<path d="M124.944 95.3013H122.628V105.049H124.944V95.3013Z" fill="#086794"/>
<path d="M118.266 102.302C119.426 102.302 120.367 101.362 120.367 100.202C120.367 99.042 119.426 98.1017 118.266 98.1017C117.106 98.1017 116.166 99.042 116.166 100.202C116.166 101.362 117.106 102.302 118.266 102.302Z" fill="white"/>
<path d="M124.89 105.103H122.521V166.495H124.89V105.103Z" fill="#0A6E9E"/>
<path d="M119.559 116.466C119.559 117.273 118.913 117.92 118.105 117.92C117.297 117.92 116.651 117.273 116.651 116.466C116.651 115.658 117.297 115.012 118.105 115.012C118.913 115.012 119.559 115.712 119.559 116.466Z" fill="white"/>
<path d="M119.559 129.283C119.559 130.09 118.913 130.737 118.105 130.737C117.297 130.737 116.651 130.09 116.651 129.283C116.651 128.475 117.297 127.829 118.105 127.829C118.913 127.829 119.559 128.475 119.559 129.283Z" fill="white"/>
<path d="M119.559 142.1C119.559 142.907 118.913 143.554 118.105 143.554C117.297 143.554 116.651 142.907 116.651 142.1C116.651 141.292 117.297 140.646 118.105 140.646C118.913 140.646 119.559 141.292 119.559 142.1Z" fill="white"/>
</g>
<defs>
<clipPath id="clip0">
<rect width="236" height="150" fill="white"/>
</clipPath>
</defs>
</svg>
